<?xml version="1.0" encoding="utf-8"?>
<!-- Generator: Adobe Illustrator 24.3.0, SVG Export Plug-In . SVG Version: 6.00 Build 0)  -->
<svg version="1.1" id="Layer_1" xmlns="http://www.w3.org/2000/svg" xmlns:xlink="http://www.w3.org/1999/xlink" x="0px" y="0px"
	 viewBox="0 0 1200 421.51" style="enable-background:new 0 0 1200 421.51;" xml:space="preserve">
<style type="text/css">
	.st0{fill:#051574;}
	.st1{fill:#26A69A;}
</style>
<g>
	<g>
		
			<rect x="537.45" y="159.4" transform="matrix(0.7071 -0.7071 0.7071 0.7071 36.1188 447.4419)" class="st0" width="41.44" height="41.44"/>
		<polygon class="st0" points="583.77,125.21 570.05,138.93 611.24,180.12 570.05,221.31 583.77,235.03 638.68,180.12 		"/>
		<polygon class="st0" points="609.17,100.21 595.46,113.93 662.65,180.12 594.46,248.31 608.17,262.03 690.08,180.12 		"/>
		<polygon class="st0" points="635.6,74.21 621.88,87.93 715.07,180.12 622.88,273.31 636.6,287.03 742.51,180.12 		"/>
	</g>
	<g>
		<path class="st1" d="M129,224.81l24.04-2.34c1.45,8.07,4.38,13.99,8.81,17.78s10.39,5.68,17.9,5.68c7.96,0,13.95-1.68,17.99-5.05
			c4.03-3.37,6.05-7.3,6.05-11.81c0-2.89-0.85-5.36-2.55-7.39c-1.7-2.03-4.66-3.8-8.89-5.3c-2.89-1-9.49-2.78-19.78-5.34
			c-13.24-3.28-22.54-7.32-27.88-12.1c-7.51-6.73-11.27-14.94-11.27-24.62c0-6.23,1.77-12.06,5.3-17.49
			c3.53-5.43,8.62-9.56,15.27-12.39c6.65-2.84,14.68-4.26,24.08-4.26c15.36,0,26.92,3.37,34.68,10.1
			c7.76,6.73,11.84,15.72,12.23,26.96l-24.71,1.08c-1.06-6.29-3.33-10.81-6.8-13.56c-3.48-2.75-8.69-4.13-15.65-4.13
			c-7.18,0-12.8,1.48-16.86,4.42c-2.62,1.89-3.92,4.42-3.92,7.6c0,2.89,1.22,5.37,3.67,7.43c3.12,2.62,10.68,5.34,22.7,8.18
			c12.02,2.84,20.91,5.77,26.67,8.81c5.76,3.03,10.27,7.18,13.52,12.44c3.25,5.26,4.88,11.76,4.88,19.49
			c0,7.01-1.95,13.58-5.84,19.7c-3.9,6.12-9.4,10.67-16.53,13.65c-7.12,2.98-16,4.46-26.63,4.46c-15.47,0-27.35-3.57-35.64-10.73
			C135.56,248.92,130.61,238.5,129,224.81z"/>
		<path class="st1" d="M240.84,239.33l23.54-3.59c1,4.56,3.03,8.03,6.09,10.39c3.06,2.37,7.35,3.55,12.85,3.55
			c6.06,0,10.63-1.11,13.69-3.34c2.06-1.56,3.09-3.64,3.09-6.26c0-1.78-0.56-3.26-1.67-4.42c-1.17-1.11-3.78-2.14-7.85-3.09
			c-18.92-4.17-30.91-7.98-35.97-11.43c-7.01-4.79-10.52-11.43-10.52-19.95c0-7.68,3.03-14.13,9.1-19.36
			c6.06-5.23,15.47-7.85,28.21-7.85c12.13,0,21.14,1.98,27.04,5.93c5.9,3.95,9.96,9.79,12.19,17.53l-22.12,4.09
			c-0.95-3.45-2.74-6.09-5.38-7.93c-2.64-1.84-6.41-2.75-11.31-2.75c-6.18,0-10.6,0.86-13.27,2.59c-1.78,1.22-2.67,2.81-2.67,4.76
			c0,1.67,0.78,3.09,2.34,4.26c2.11,1.56,9.42,3.76,21.91,6.59c12.49,2.84,21.21,6.32,26.17,10.43c4.9,4.17,7.35,9.99,7.35,17.44
			c0,8.12-3.39,15.11-10.18,20.95c-6.79,5.84-16.83,8.76-30.13,8.76c-12.08,0-21.63-2.45-28.67-7.34
			C247.62,254.39,243.01,247.74,240.84,239.33z"/>
		<path class="st1" d="M343.17,264.62V142.26h23.45v44.07c7.23-8.23,15.8-12.35,25.71-12.35c10.79,0,19.73,3.91,26.79,11.73
			c7.07,7.82,10.6,19.04,10.6,33.68c0,15.14-3.6,26.79-10.81,34.97c-7.21,8.18-15.96,12.27-26.25,12.27
			c-5.06,0-10.06-1.27-14.98-3.8c-4.92-2.53-9.17-6.27-12.73-11.23v13.02H343.17z M366.46,218.38c0,9.18,1.45,15.97,4.34,20.37
			c4.06,6.23,9.46,9.35,16.19,9.35c5.17,0,9.58-2.21,13.23-6.64c3.64-4.42,5.47-11.39,5.47-20.91c0-10.13-1.84-17.43-5.51-21.91
			c-3.67-4.48-8.38-6.72-14.11-6.72c-5.62,0-10.29,2.18-14.02,6.55C368.32,202.85,366.46,209.48,366.46,218.38z"/>
		<path class="st1" d="M471.04,264.62h-23.45v-88.64h21.78v12.6c3.73-5.95,7.08-9.88,10.06-11.77c2.98-1.89,6.36-2.84,10.14-2.84
			c5.34,0,10.49,1.47,15.44,4.42l-7.26,20.45c-3.95-2.56-7.62-3.84-11.02-3.84c-3.28,0-6.07,0.91-8.35,2.71
			c-2.28,1.81-4.08,5.08-5.38,9.81c-1.31,4.73-1.96,14.64-1.96,29.71V264.62z"/>
	</g>
	<g>
		<path class="st1" d="M766.52,161.37v-21.7h23.46v21.7H766.52z M766.52,262.03v-88.64h23.46v88.64H766.52z"/>
		<path class="st1" d="M814.43,262.03V139.67h24.04l50.08,81.71v-81.71h22.95v122.36h-24.79l-49.33-79.79v79.79H814.43z"/>
		<path class="st1" d="M988.79,233.82l23.37,3.92c-3,8.57-7.75,15.09-14.23,19.57c-6.48,4.48-14.59,6.72-24.33,6.72
			c-15.41,0-26.82-5.04-34.22-15.11c-5.84-8.07-8.76-18.25-8.76-30.55c0-14.69,3.84-26.19,11.52-34.51
			c7.68-8.32,17.39-12.48,29.13-12.48c13.19,0,23.59,4.35,31.22,13.06c7.62,8.71,11.27,22.05,10.93,40.02h-58.76
			c0.17,6.96,2.06,12.37,5.68,16.23c3.62,3.87,8.12,5.8,13.52,5.8c3.67,0,6.76-1,9.27-3C985.62,241.5,987.51,238.27,988.79,233.82z
			 M990.12,210.11c-0.17-6.79-1.92-11.95-5.26-15.48c-3.34-3.53-7.4-5.3-12.19-5.3c-5.12,0-9.35,1.86-12.69,5.59
			c-3.34,3.73-4.98,8.79-4.92,15.19H990.12z"/>
		<path class="st1" d="M1073.17,173.39v18.7h-16.03v35.72c0,7.23,0.15,11.45,0.46,12.65c0.31,1.2,1,2.18,2.09,2.96
			c1.08,0.78,2.41,1.17,3.96,1.17c2.17,0,5.31-0.75,9.43-2.25l2,18.2c-5.45,2.34-11.63,3.5-18.53,3.5c-4.23,0-8.04-0.71-11.44-2.13
			c-3.39-1.42-5.88-3.26-7.47-5.51c-1.59-2.25-2.69-5.3-3.3-9.14c-0.5-2.73-0.75-8.23-0.75-16.53v-38.65h-10.77v-18.7h10.77v-17.61
			l23.54-13.69v31.3H1073.17z"/>
	</g>
	<g>
		<path class="st1" d="M375.11,294.41v-6.96h7.52v6.96H375.11z M375.11,326.67v-28.41h7.52v28.41H375.11z"/>
		<path class="st1" d="M399.21,326.67v-32.59h-11.64v-6.64h31.17v6.64h-11.61v32.59H399.21z"/>
		<path class="st1" d="M439.11,326.67v-39.22h7.92v15.44h15.52v-15.44h7.92v39.22h-7.92v-17.15h-15.52v17.15H439.11z"/>
		<path class="st1" d="M497.3,326.67v-4.25c-1.03,1.52-2.39,2.71-4.08,3.58s-3.46,1.31-5.34,1.31c-1.91,0-3.62-0.42-5.14-1.26
			c-1.52-0.84-2.61-2.02-3.29-3.53c-0.68-1.52-1.02-3.61-1.02-6.29v-17.98h7.52v13.06c0,4,0.14,6.44,0.42,7.34
			c0.28,0.9,0.78,1.62,1.51,2.14c0.73,0.53,1.66,0.79,2.78,0.79c1.28,0,2.44-0.35,3.45-1.06c1.02-0.7,1.71-1.58,2.09-2.62
			c0.37-1.04,0.56-3.6,0.56-7.67v-11.99h7.52v28.41H497.3z"/>
		<path class="st1" d="M511.75,326.67v-39.22h7.52v14.13c2.32-2.64,5.07-3.96,8.24-3.96c3.46,0,6.32,1.25,8.59,3.76
			c2.26,2.51,3.4,6.1,3.4,10.8c0,4.85-1.15,8.59-3.46,11.21c-2.31,2.62-5.12,3.93-8.41,3.93c-1.62,0-3.22-0.41-4.8-1.22
			s-2.94-2.01-4.08-3.6v4.17H511.75z M519.21,311.85c0,2.94,0.46,5.12,1.39,6.53c1.3,2,3.03,3,5.19,3c1.66,0,3.07-0.71,4.24-2.13
			c1.17-1.42,1.75-3.65,1.75-6.7c0-3.25-0.59-5.59-1.77-7.02c-1.18-1.44-2.68-2.15-4.52-2.15c-1.8,0-3.3,0.7-4.5,2.1
			C519.81,306.87,519.21,309,519.21,311.85z"/>
		<path class="st1" d="M569.65,326.67v-32.59h-11.64v-6.64h31.17v6.64h-11.61v32.59H569.65z"/>
		<path class="st1" d="M606.62,317.63l7.49,1.26c-0.96,2.75-2.48,4.84-4.56,6.27c-2.08,1.44-4.68,2.15-7.8,2.15
			c-4.94,0-8.6-1.61-10.97-4.84c-1.87-2.59-2.81-5.85-2.81-9.79c0-4.71,1.23-8.4,3.69-11.06c2.46-2.67,5.57-4,9.34-4
			c4.23,0,7.56,1.4,10.01,4.19c2.44,2.79,3.61,7.07,3.5,12.83h-18.84c0.05,2.23,0.66,3.96,1.82,5.2c1.16,1.24,2.6,1.86,4.33,1.86
			c1.18,0,2.17-0.32,2.97-0.96C605.6,320.09,606.21,319.06,606.62,317.63z M607.05,310.03c-0.05-2.18-0.62-3.83-1.69-4.96
			s-2.37-1.7-3.91-1.7c-1.64,0-3,0.6-4.07,1.79c-1.07,1.19-1.6,2.82-1.58,4.87H607.05z"/>
		<path class="st1" d="M645.42,306.66L638,308c-0.25-1.48-0.82-2.6-1.7-3.34c-0.88-0.75-2.03-1.12-3.44-1.12
			c-1.87,0-3.37,0.65-4.48,1.94c-1.12,1.29-1.67,3.46-1.67,6.49c0,3.37,0.57,5.75,1.7,7.14c1.13,1.39,2.65,2.09,4.56,2.09
			c1.43,0,2.59-0.41,3.5-1.22c0.91-0.81,1.55-2.21,1.93-4.19l7.38,1.26c-0.77,3.39-2.24,5.95-4.42,7.68
			c-2.18,1.73-5.09,2.6-8.75,2.6c-4.16,0-7.47-1.31-9.94-3.93s-3.71-6.25-3.71-10.89c0-4.69,1.24-8.34,3.72-10.96
			c2.48-2.61,5.83-3.92,10.06-3.92c3.46,0,6.21,0.75,8.25,2.23C643.06,301.34,644.52,303.61,645.42,306.66z"/>
		<path class="st1" d="M658.61,287.45v14.42c2.42-2.84,5.32-4.25,8.7-4.25c1.73,0,3.29,0.32,4.68,0.96
			c1.39,0.64,2.44,1.46,3.14,2.46c0.7,1,1.19,2.11,1.44,3.32s0.39,3.09,0.39,5.64v16.67h-7.52v-15.01c0-2.98-0.14-4.87-0.43-5.67
			s-0.79-1.44-1.51-1.91c-0.72-0.47-1.63-0.71-2.72-0.71c-1.25,0-2.36,0.3-3.34,0.91c-0.98,0.61-1.7,1.52-2.15,2.74
			c-0.45,1.22-0.68,3.03-0.68,5.42v14.23h-7.52v-39.22H658.61z"/>
		<path class="st1" d="M710.43,326.67h-7.52v-14.5c0-3.07-0.16-5.05-0.48-5.95c-0.32-0.9-0.84-1.6-1.56-2.1
			c-0.72-0.5-1.59-0.75-2.61-0.75c-1.3,0-2.47,0.36-3.5,1.07c-1.03,0.71-1.74,1.66-2.13,2.84c-0.38,1.18-0.58,3.35-0.58,6.53v12.87
			h-7.52v-28.41h6.98v4.17c2.48-3.21,5.6-4.82,9.36-4.82c1.66,0,3.17,0.3,4.55,0.9c1.37,0.6,2.41,1.36,3.12,2.29
			c0.7,0.93,1.19,1.98,1.47,3.16c0.28,1.18,0.41,2.86,0.41,5.06V326.67z"/>
		<path class="st1" d="M716.32,312.06c0-2.5,0.62-4.91,1.85-7.25c1.23-2.34,2.97-4.12,5.23-5.35s4.78-1.85,7.56-1.85
			c4.3,0,7.82,1.4,10.57,4.19c2.75,2.79,4.12,6.32,4.12,10.58c0,4.3-1.39,7.86-4.16,10.69c-2.77,2.83-6.27,4.24-10.47,4.24
			c-2.6,0-5.09-0.59-7.45-1.77c-2.36-1.18-4.16-2.9-5.39-5.18S716.32,315.33,716.32,312.06z M724.02,312.47
			c0,2.82,0.67,4.98,2.01,6.47s2.99,2.25,4.95,2.25s3.61-0.75,4.94-2.25s1.99-3.67,1.99-6.53c0-2.78-0.66-4.92-1.99-6.42
			s-2.97-2.25-4.94-2.25s-3.61,0.75-4.95,2.25S724.02,309.65,724.02,312.47z"/>
		<path class="st1" d="M751.53,326.67v-39.22h7.52v39.22H751.53z"/>
		<path class="st1" d="M765.01,312.06c0-2.5,0.62-4.91,1.85-7.25c1.23-2.34,2.97-4.12,5.23-5.35s4.78-1.85,7.56-1.85
			c4.3,0,7.82,1.4,10.57,4.19c2.75,2.79,4.12,6.32,4.12,10.58c0,4.3-1.39,7.86-4.16,10.69c-2.77,2.83-6.27,4.24-10.47,4.24
			c-2.6,0-5.09-0.59-7.45-1.77c-2.36-1.18-4.16-2.9-5.39-5.18S765.01,315.33,765.01,312.06z M772.72,312.47
			c0,2.82,0.67,4.98,2.01,6.47s2.99,2.25,4.95,2.25s3.61-0.75,4.94-2.25s1.99-3.67,1.99-6.53c0-2.78-0.66-4.92-1.99-6.42
			s-2.97-2.25-4.94-2.25s-3.61,0.75-4.95,2.25S772.72,309.65,772.72,312.47z"/>
		<path class="st1" d="M799.53,328.55l8.59,1.04c0.14,1,0.47,1.69,0.99,2.06c0.71,0.54,1.84,0.8,3.37,0.8
			c1.96,0,3.43-0.29,4.42-0.88c0.66-0.39,1.16-1.03,1.5-1.9c0.23-0.62,0.35-1.78,0.35-3.45v-4.15c-2.25,3.07-5.08,4.6-8.51,4.6
			c-3.82,0-6.84-1.61-9.07-4.84c-1.75-2.55-2.62-5.73-2.62-9.52c0-4.76,1.15-8.4,3.44-10.92c2.29-2.51,5.14-3.77,8.55-3.77
			c3.51,0,6.41,1.54,8.7,4.63v-3.99h7.04v25.5c0,3.35-0.28,5.86-0.83,7.52c-0.55,1.66-1.33,2.96-2.33,3.91s-2.33,1.69-4,2.22
			s-3.78,0.8-6.33,0.8c-4.82,0-8.23-0.83-10.25-2.47c-2.02-1.65-3.02-3.74-3.02-6.27C799.5,329.21,799.51,328.9,799.53,328.55z
			 M806.24,311.88c0,3.01,0.58,5.22,1.75,6.62s2.61,2.1,4.32,2.1c1.84,0,3.39-0.72,4.66-2.15c1.27-1.44,1.9-3.56,1.9-6.38
			c0-2.94-0.61-5.13-1.82-6.55s-2.75-2.14-4.6-2.14c-1.8,0-3.29,0.7-4.46,2.1S806.24,309.01,806.24,311.88z"/>
		<path class="st1" d="M833.69,294.41v-6.96h7.52v6.96H833.69z M833.69,326.67v-28.41h7.52v28.41H833.69z"/>
		<path class="st1" d="M865.37,317.63l7.49,1.26c-0.96,2.75-2.48,4.84-4.56,6.27c-2.08,1.44-4.68,2.15-7.8,2.15
			c-4.94,0-8.6-1.61-10.97-4.84c-1.87-2.59-2.81-5.85-2.81-9.79c0-4.71,1.23-8.4,3.69-11.06c2.46-2.67,5.57-4,9.34-4
			c4.23,0,7.56,1.4,10.01,4.19c2.44,2.79,3.61,7.07,3.5,12.83h-18.84c0.05,2.23,0.66,3.96,1.82,5.2c1.16,1.24,2.6,1.86,4.33,1.86
			c1.18,0,2.17-0.32,2.97-0.96C864.35,320.09,864.96,319.06,865.37,317.63z M865.8,310.03c-0.05-2.18-0.62-3.83-1.69-4.96
			s-2.37-1.7-3.91-1.7c-1.64,0-3,0.6-4.07,1.79c-1.07,1.19-1.6,2.82-1.58,4.87H865.8z"/>
		<path class="st1" d="M876.74,318.57l7.54-1.15c0.32,1.46,0.97,2.57,1.95,3.33c0.98,0.76,2.35,1.14,4.12,1.14
			c1.94,0,3.41-0.36,4.39-1.07c0.66-0.5,0.99-1.17,0.99-2.01c0-0.57-0.18-1.04-0.54-1.42c-0.37-0.36-1.21-0.69-2.51-0.99
			c-6.06-1.34-9.91-2.56-11.53-3.67c-2.25-1.53-3.37-3.67-3.37-6.39c0-2.46,0.97-4.53,2.92-6.21c1.94-1.68,4.96-2.52,9.04-2.52
			c3.89,0,6.78,0.63,8.67,1.9s3.19,3.14,3.91,5.62l-7.09,1.31c-0.3-1.11-0.88-1.95-1.73-2.54c-0.85-0.59-2.06-0.88-3.63-0.88
			c-1.98,0-3.4,0.28-4.25,0.83c-0.57,0.39-0.86,0.9-0.86,1.53c0,0.54,0.25,0.99,0.75,1.36c0.68,0.5,3.02,1.2,7.02,2.11
			c4,0.91,6.8,2.03,8.39,3.34c1.57,1.34,2.35,3.2,2.35,5.59c0,2.6-1.09,4.84-3.26,6.72c-2.18,1.87-5.4,2.81-9.66,2.81
			c-3.87,0-6.93-0.79-9.19-2.35C878.91,323.39,877.44,321.26,876.74,318.57z"/>
	</g>
</g>
</svg>
