<svg width="210" height="182" viewBox="0 0 210 182" fill="none" xmlns="http://www.w3.org/2000/svg">
<g filter="url(#filter0_d_2456_9193)">
<path d="M89.5 169.567C132.302 169.567 167 134.421 167 91.0671C167 47.7128 132.302 12.5671 89.5 12.5671C46.6979 12.5671 12 47.7128 12 91.0671C12 134.421 46.6979 169.567 89.5 169.567Z" fill="url(#paint0_linear_2456_9193)"/>
<g filter="url(#filter1_d_2456_9193)">
<path d="M62.4248 47.8964H192.353C193.629 47.8964 194.853 48.4492 195.755 49.4333C196.658 50.4173 197.165 51.752 197.165 53.1437V79.3801C197.165 80.7718 196.658 82.1064 195.755 83.0905C194.853 84.0746 193.629 84.6274 192.353 84.6274H62.4248C61.1486 84.6274 59.9246 84.0746 59.0221 83.0905C58.1197 82.1064 57.6127 80.7718 57.6127 79.3801V53.1437C57.6127 51.752 58.1197 50.4173 59.0221 49.4333C59.9246 48.4492 61.1486 47.8964 62.4248 47.8964V47.8964Z" fill="white"/>
</g>
<path d="M124.02 56.2921H98.9971C97.4025 56.2921 96.1098 57.7017 96.1098 59.4405C96.1098 61.1793 97.4025 62.5889 98.9971 62.5889H124.02C125.615 62.5889 126.907 61.1793 126.907 59.4405C126.907 57.7017 125.615 56.2921 124.02 56.2921Z" fill="#B4DAFF"/>
<path d="M141.344 69.9351H98.997C97.4024 69.9351 96.1097 71.3446 96.1097 73.0834C96.1097 74.8222 97.4024 76.2318 98.997 76.2318H141.344C142.938 76.2318 144.231 74.8222 144.231 73.0834C144.231 71.3446 142.938 69.9351 141.344 69.9351Z" fill="#DEE9FC"/>
<path d="M90 66.2618C90 59.2192 84.2916 53.51 77.25 53.51C70.2083 53.51 64.5 59.2192 64.5 66.2618C64.5 73.3045 70.2083 79.0136 77.25 79.0136C84.2916 79.0136 90 73.3045 90 66.2618Z" fill="#1485FD"/>
<path d="M75.7887 69.3801H77.2731L77.2894 68.7569C77.2894 67.9379 77.7629 67.7243 78.4324 67.4928C79.1039 67.2845 79.695 66.8435 80.1162 66.2364C80.5375 65.6292 80.766 64.8891 80.7673 64.1278C80.782 63.663 80.708 63.1999 80.5501 62.7678C80.3922 62.3358 80.1537 61.9442 79.8498 61.6178C79.5459 61.2915 79.1832 61.0375 78.7846 60.8719C78.3861 60.7063 77.9603 60.6328 77.5343 60.6559C77.0841 60.6452 76.6366 60.7343 76.219 60.9179C75.8013 61.1014 75.4222 61.3756 75.1046 61.7237C74.787 62.0718 74.5376 62.4866 74.3714 62.943C74.2053 63.3994 74.1259 63.8878 74.1381 64.3787H75.6729C75.6671 64.1076 75.7109 63.8381 75.8019 63.5858C75.8928 63.3335 76.029 63.1035 76.2025 62.9093C76.376 62.7152 76.5833 62.5607 76.8123 62.455C77.0412 62.3494 77.2872 62.2946 77.5358 62.2939C77.76 62.2797 77.9844 62.3184 78.1936 62.4072C78.4029 62.4959 78.5922 62.6328 78.7487 62.8085C78.9052 62.9842 79.0251 63.1945 79.1004 63.4252C79.1756 63.6559 79.2045 63.9016 79.1849 64.1456C79.175 64.5404 79.0491 64.9214 78.8257 65.2323C78.6023 65.5432 78.2932 65.7677 77.944 65.8726L77.4052 66.1057C76.8776 66.2443 76.4171 66.5939 76.1147 67.0852C75.8123 67.5765 75.6901 68.1737 75.7724 68.7586L75.7887 69.3801ZM76.5235 73.2275C76.6688 73.2331 76.8137 73.2069 76.9496 73.1504C77.0855 73.0939 77.2097 73.0083 77.3147 72.8986C77.4197 72.7889 77.5035 72.6574 77.5611 72.5117C77.6187 72.3661 77.649 72.2094 77.6501 72.0508C77.6488 71.8923 77.6184 71.7358 77.5607 71.5903C77.503 71.4449 77.4192 71.3135 77.3142 71.204C77.2092 71.0945 77.0851 71.009 76.9493 70.9526C76.8135 70.8962 76.6687 70.8701 76.5235 70.8757C76.3782 70.8701 76.2334 70.8962 76.0976 70.9526C75.9618 71.009 75.8378 71.0945 75.7327 71.204C75.6277 71.3135 75.5439 71.4449 75.4862 71.5903C75.4285 71.7358 75.3981 71.8923 75.3968 72.0508C75.3979 72.2094 75.4282 72.3661 75.4858 72.5117C75.5434 72.6574 75.6272 72.7889 75.7322 72.8986C75.8373 73.0083 75.9614 73.0939 76.0973 73.1504C76.2332 73.2069 76.3781 73.2331 76.5235 73.2275Z" fill="white"/>
<g filter="url(#filter2_d_2456_9193)">
<path d="M177.916 95.1219H47.9884C45.3307 95.1219 43.1763 97.4712 43.1763 100.369V126.606C43.1763 129.504 45.3307 131.853 47.9884 131.853H177.916C180.574 131.853 182.728 129.504 182.728 126.606V100.369C182.728 97.4712 180.574 95.1219 177.916 95.1219Z" fill="white"/>
</g>
<path d="M109.584 103.518H84.5607C82.9661 103.518 81.6734 104.927 81.6734 106.666C81.6734 108.405 82.9661 109.814 84.5607 109.814H109.584C111.178 109.814 112.471 108.405 112.471 106.666C112.471 104.927 111.178 103.518 109.584 103.518Z" fill="#B4DAFF"/>
<path d="M126.908 117.161H84.5607C82.9661 117.161 81.6734 118.57 81.6734 120.309C81.6734 122.048 82.9661 123.457 84.5607 123.457H126.908C128.502 123.457 129.795 122.048 129.795 120.309C129.795 118.57 128.502 117.161 126.908 117.161Z" fill="#DEE9FC"/>
<path d="M76 113.262C76 106.219 70.2916 100.51 63.25 100.51C56.2083 100.51 50.5 106.219 50.5 113.262C50.5 120.304 56.2083 126.014 63.25 126.014C70.2916 126.014 76 120.304 76 113.262Z" fill="#1485FD"/>
<path d="M61.7887 116.38H63.2731L63.2894 115.757C63.2894 114.938 63.7629 114.724 64.4324 114.493C65.1039 114.285 65.695 113.843 66.1162 113.236C66.5375 112.629 66.766 111.889 66.7673 111.128C66.782 110.663 66.708 110.2 66.5501 109.768C66.3922 109.336 66.1537 108.944 65.8498 108.618C65.5459 108.291 65.1832 108.037 64.7846 107.872C64.3861 107.706 63.9603 107.633 63.5343 107.656C63.0841 107.645 62.6366 107.734 62.219 107.918C61.8013 108.101 61.4222 108.376 61.1046 108.724C60.787 109.072 60.5376 109.487 60.3714 109.943C60.2053 110.399 60.1259 110.888 60.1381 111.379H61.6729C61.6671 111.108 61.7109 110.838 61.8019 110.586C61.8928 110.333 62.029 110.103 62.2025 109.909C62.376 109.715 62.5833 109.561 62.8123 109.455C63.0412 109.349 63.2872 109.295 63.5358 109.294C63.76 109.28 63.9844 109.318 64.1936 109.407C64.4029 109.496 64.5922 109.633 64.7487 109.809C64.9052 109.984 65.0251 110.195 65.1004 110.425C65.1756 110.656 65.2045 110.902 65.1849 111.146C65.175 111.54 65.0491 111.921 64.8257 112.232C64.6023 112.543 64.2932 112.768 63.944 112.873L63.4052 113.106C62.8776 113.244 62.4171 113.594 62.1147 114.085C61.8123 114.576 61.6901 115.174 61.7724 115.759L61.7887 116.38ZM62.5235 120.227C62.6688 120.233 62.8137 120.207 62.9496 120.15C63.0855 120.094 63.2097 120.008 63.3147 119.899C63.4197 119.789 63.5035 119.657 63.5611 119.512C63.6187 119.366 63.649 119.209 63.6501 119.051C63.6488 118.892 63.6184 118.736 63.5607 118.59C63.503 118.445 63.4192 118.314 63.3142 118.204C63.2092 118.094 63.0851 118.009 62.9493 117.953C62.8135 117.896 62.6687 117.87 62.5235 117.876C62.3782 117.87 62.2334 117.896 62.0976 117.953C61.9618 118.009 61.8378 118.094 61.7327 118.204C61.6277 118.314 61.5439 118.445 61.4862 118.59C61.4285 118.736 61.3981 118.892 61.3968 119.051C61.3979 119.209 61.4282 119.366 61.4858 119.512C61.5434 119.657 61.6272 119.789 61.7322 119.899C61.8373 120.008 61.9614 120.094 62.0973 120.15C62.2332 120.207 62.3781 120.233 62.5235 120.227Z" fill="white"/>
</g>
<defs>
<filter id="filter0_d_2456_9193" x="0" y="0.567139" width="209.165" height="181" filterUnits="userSpaceOnUse" color-interpolation-filters="sRGB">
<feFlood flood-opacity="0" result="BackgroundImageFix"/>
<feColorMatrix in="SourceAlpha" type="matrix" values="0 0 0 0 0 0 0 0 0 0 0 0 0 0 0 0 0 0 127 0" result="hardAlpha"/>
<feOffset/>
<feGaussianBlur stdDeviation="6"/>
<feComposite in2="hardAlpha" operator="out"/>
<feColorMatrix type="matrix" values="0 0 0 0 0 0 0 0 0 0 0 0 0 0 0 0 0 0 0.04 0"/>
<feBlend mode="normal" in2="BackgroundImageFix" result="effect1_dropShadow_2456_9193"/>
<feBlend mode="normal" in="SourceGraphic" in2="effect1_dropShadow_2456_9193" result="shape"/>
</filter>
<filter id="filter1_d_2456_9193" x="51.0927" y="44.6364" width="152.592" height="49.7711" filterUnits="userSpaceOnUse" color-interpolation-filters="sRGB">
<feFlood flood-opacity="0" result="BackgroundImageFix"/>
<feColorMatrix in="SourceAlpha" type="matrix" values="0 0 0 0 0 0 0 0 0 0 0 0 0 0 0 0 0 0 127 0" result="hardAlpha"/>
<feOffset dy="3.26"/>
<feGaussianBlur stdDeviation="3.26"/>
<feColorMatrix type="matrix" values="0 0 0 0 0 0 0 0 0 0 0 0 0 0 0 0 0 0 0.161 0"/>
<feBlend mode="normal" in2="BackgroundImageFix" result="effect1_dropShadow_2456_9193"/>
<feBlend mode="normal" in="SourceGraphic" in2="effect1_dropShadow_2456_9193" result="shape"/>
</filter>
<filter id="filter2_d_2456_9193" x="36.6563" y="91.8619" width="152.592" height="49.7711" filterUnits="userSpaceOnUse" color-interpolation-filters="sRGB">
<feFlood flood-opacity="0" result="BackgroundImageFix"/>
<feColorMatrix in="SourceAlpha" type="matrix" values="0 0 0 0 0 0 0 0 0 0 0 0 0 0 0 0 0 0 127 0" result="hardAlpha"/>
<feOffset dy="3.26"/>
<feGaussianBlur stdDeviation="3.26"/>
<feColorMatrix type="matrix" values="0 0 0 0 0 0 0 0 0 0 0 0 0 0 0 0 0 0 0.161 0"/>
<feBlend mode="normal" in2="BackgroundImageFix" result="effect1_dropShadow_2456_9193"/>
<feBlend mode="normal" in="SourceGraphic" in2="effect1_dropShadow_2456_9193" result="shape"/>
</filter>
<linearGradient id="paint0_linear_2456_9193" x1="89.5" y1="12.5671" x2="89.5" y2="169.567" gradientUnits="userSpaceOnUse">
<stop stop-color="#E3ECFA"/>
<stop offset="1" stop-color="#DAE7FF"/>
</linearGradient>
</defs>
</svg>
