<?xml version="1.0" encoding="iso-8859-1"?>
<!-- Uploaded to: SVG Repo, www.svgrepo.com, Generator: SVG Repo Mixer Tools -->
<svg version="1.1" id="Layer_1" xmlns="http://www.w3.org/2000/svg" xmlns:xlink="http://www.w3.org/1999/xlink" 
	 viewBox="0 0 512.004 512.004" xml:space="preserve">
<rect x="39.151" style="fill:#00DDC0;" width="113.52" height="512.004"/>
<rect x="95.911" style="fill:#00AC93;" width="56.76" height="512.004"/>
<rect x="152.671" style="fill:#FFAD1D;" width="113.52" height="512.004"/>
<rect x="209.442" style="fill:#FF8900;" width="56.76" height="512.004"/>
<rect x="39.151" y="437.501" style="fill:#006659;" width="113.52" height="74.493"/>
<rect x="95.911" y="437.501" style="fill:#005349;" width="56.76" height="74.493"/>
<rect x="152.671" y="437.501" style="fill:#FF4F18;" width="113.52" height="74.493"/>
<rect x="209.442" y="437.501" style="fill:#FF3400;" width="56.76" height="74.493"/>
<rect x="315.22" y="9.326" transform="matrix(-0.9806 0.1962 -0.1962 -0.9806 783.7764 437.2287)" style="fill:#00A5FF;" width="110.026" height="496.216"/>
<rect x="369.697" y="3.927" transform="matrix(-0.9806 0.1962 -0.1962 -0.9806 836.1343 421.2428)" style="fill:#0082D2;" width="55.013" height="496.216"/>
<polygon style="fill:#006DF3;" points="472.845,489.894 364.963,511.484 350.333,438.373 458.261,417.012 "/>
<polygon style="fill:#005FD1;" points="472.845,489.894 418.905,500.689 404.297,427.692 458.261,417.012 "/>
<rect x="73.978" y="51.2" style="fill:#FFFFFF;" width="44.522" height="33.391"/>
<rect x="96.236" y="51.2" style="fill:#E1E1E4;" width="22.261" height="33.391"/>
<rect x="187.509" y="51.2" style="fill:#FFFFFF;" width="44.522" height="33.391"/>
<rect x="209.442" y="51.2" style="fill:#E1E1E4;" width="22.594" height="33.391"/>
<rect x="318.886" y="59.425" transform="matrix(-0.1896 -0.9819 0.9819 -0.1896 319.6778 425.8492)" style="fill:#FFFFFF;" width="33.392" height="43.145"/>
<polygon style="fill:#E1E1E4;" points="338.215,97.479 331.662,64.735 353.595,60.502 359.925,93.287 "/>
</svg>