<?xml version="1.0" encoding="iso-8859-1"?>
<!-- Uploaded to: SVG Repo, www.svgrepo.com, Generator: SVG Repo Mixer Tools -->
<svg height="800px" width="800px" version="1.1" id="Layer_1" xmlns="http://www.w3.org/2000/svg" xmlns:xlink="http://www.w3.org/1999/xlink" 
	 viewBox="0 0 512 512" xml:space="preserve">
<circle style="fill:#25B6D2;" cx="256" cy="256" r="256"/>
<path style="fill:#FFFFFF;" d="M485.9,368.7c2.6-5.2,5-10.6,7.2-16h-49.3c9.4-28.4,15.2-60.4,15.2-96c0-36.2-6-68.6-15.6-97.4h49.7
	c-2.2-5.4-4.6-10.8-7.2-16h-48.4c-23.6-59.4-62.2-101.5-91.6-127c-13.3-5-27.2-8.9-41.4-11.7c20.5,13.5,82,59,115.8,138.7h-95.6
	C310.1,76.1,287.3,25,275.2,0.7C269.1,0.3,263,0,256.8,0c9.6,18,35.4,70.7,51.5,143.3H203.7C219.8,70.7,245.6,18,255.2,0
	c-6.2,0-12.3,0.3-18.3,0.7C224.7,25,202,76.1,187.4,143.3H91.7C125.5,63.6,187,18.1,207.5,4.6c-14.3,2.7-28.1,6.7-41.4,11.6
	c-29.4,25.5-68,67.6-91.6,127H26.1c-2.6,5.2-5,10.6-7.2,16h49.7C59,188,53,220.5,53,256.7c0,35.6,5.8,67.6,15.2,96H18.9
	c2.2,5.4,4.6,10.8,7.2,16H74C97,427.2,134.6,469,164,495c13.3,5.1,27.1,9.2,41.3,12c-23-15.5-81.7-60.9-114.1-138.3h93.1
	c9.5,46.4,26.3,94.5,53,142.6c6.2,0.4,12.4,0.7,18.7,0.7c6.3,0,12.5-0.2,18.7-0.7c26.8-48.1,43.5-96.2,53-142.6h93
	C388.3,446,329.6,491.5,306.6,507c14.2-2.9,28-6.9,41.3-12c29.4-25.9,67-67.8,90-126.3H485.9z M311.6,159.3
	c10.9,56.1,15.4,122.6,2.8,193.4H197.5c-12.5-70.8-8-137.3,2.8-193.4L311.6,159.3L311.6,159.3z M85.1,352.7c-9.8-28.2-16-60.1-16-96
	c0-36.5,6.4-68.9,16.5-97.4h98.6c-10.6,56.4-14.9,122.7-2.9,193.4H85.1z M256,511.8c-28-48.2-45.5-96.5-55.4-143.1h110.7
	C301.5,415.3,284,463.6,256,511.8z M330.7,352.7c12.1-70.7,7.8-137-2.9-193.4h98.6c10.1,28.5,16.5,60.9,16.5,97.4
	c0,35.9-6.2,67.9-16.1,96H330.7z"/>
<path style="fill:#25B6D2;" d="M0,256c0,34.8,7,68.1,19.6,98.3h472.8C505,324.1,512,290.8,512,256c0-35.4-7.2-69.2-20.2-99.9H20.2
	C7.2,186.8,0,220.6,0,256z"/>
<g>
	<path style="fill:#FFFFFF;" d="M54.4,253.5c0-9.7,1.5-17.9,4.4-24.5c2.2-4.9,5.1-9.2,8.9-13.1c3.7-3.9,7.9-6.7,12.3-8.6
		c6-2.5,12.8-3.8,20.6-3.8c14.1,0,25.3,4.4,33.7,13.1c8.4,8.7,12.7,20.9,12.7,36.4c0,15.4-4.2,27.5-12.6,36.2s-19.6,13-33.6,13
		c-14.2,0-25.5-4.3-33.8-13S54.4,268.7,54.4,253.5z M74.3,252.8c0,10.8,2.5,19,7.5,24.6s11.3,8.4,19,8.4s14-2.8,18.9-8.3
		s7.4-13.8,7.4-24.9c0-10.9-2.4-19.1-7.2-24.5c-4.8-5.4-11.2-8.1-19.1-8.1s-14.3,2.7-19.2,8.2C76.7,233.6,74.3,241.8,74.3,252.8z"/>
	<path style="fill:#FFFFFF;" d="M224.8,300.6h-18.3v-35.3c0-7.5-0.4-12.3-1.2-14.5s-2-3.9-3.8-5.1c-1.8-1.2-3.9-1.8-6.3-1.8
		c-3.2,0-6,0.9-8.5,2.6s-4.3,4-5.2,6.9c-0.9,2.9-1.4,8.2-1.4,15.9v31.3h-18.3v-69.1h17v10.2c6-7.8,13.6-11.7,22.8-11.7
		c4,0,7.7,0.7,11.1,2.2s5.9,3.3,7.6,5.6c1.7,2.3,2.9,4.8,3.6,7.7c0.7,2.9,1,7,1,12.3v42.8H224.8z"/>
	<path style="fill:#FFFFFF;" d="M243.3,300.6v-95.4h18.3v95.4H243.3z"/>
	<path style="fill:#FFFFFF;" d="M280.3,222.1v-16.9h18.3v16.9H280.3z M280.3,300.6v-69.1h18.3v69.1H280.3z"/>
	<path style="fill:#FFFFFF;" d="M380.3,300.6H362v-35.3c0-7.5-0.4-12.3-1.2-14.5s-2-3.9-3.8-5.1c-1.8-1.2-3.9-1.8-6.3-1.8
		c-3.2,0-6,0.9-8.5,2.6s-4.3,4-5.2,6.9c-0.9,2.9-1.4,8.2-1.4,15.9v31.3h-18.3v-69.1h17v10.2c6-7.8,13.6-11.7,22.8-11.7
		c4,0,7.7,0.7,11.1,2.2s5.9,3.3,7.6,5.6s2.9,4.8,3.6,7.7s1,7,1,12.3L380.3,300.6L380.3,300.6z"/>
	<path style="fill:#FFFFFF;" d="M438.9,278.6l18.2,3.1c-2.3,6.7-6,11.8-11.1,15.3s-11.4,5.2-19,5.2c-12,0-20.9-3.9-26.7-11.8
		c-4.5-6.3-6.8-14.2-6.8-23.8c0-11.5,3-20.4,9-26.9s13.6-9.7,22.7-9.7c10.3,0,18.4,3.4,24.3,10.2c6,6.8,8.8,17.2,8.5,31.2h-45.8
		c0.1,5.4,1.6,9.6,4.4,12.7c2.8,3,6.3,4.5,10.5,4.5c2.9,0,5.3-0.8,7.2-2.3S437.9,282.1,438.9,278.6z M439.9,260.1
		c-0.1-5.3-1.5-9.3-4.1-12.1s-5.8-4.1-9.5-4.1c-4,0-7.3,1.5-9.9,4.4s-3.9,6.9-3.8,11.8L439.9,260.1L439.9,260.1z"/>
</g>
</svg>