<?xml version="1.0" encoding="utf-8"?>
<!-- Uploaded to: SVG Repo, www.svgrepo.com, Generator: SVG Repo Mixer Tools -->
<svg fill="#000000" version="1.1" id="Layer_1" xmlns="http://www.w3.org/2000/svg" xmlns:xlink="http://www.w3.org/1999/xlink" 
	 width="800px" height="800px" viewBox="0 0 256 215" enable-background="new 0 0 256 215" xml:space="preserve">
<path d="M226.096,121.264c-1.168-3.337-4.171-5.422-7.674-5.422h-5.297V19.911c0-9.767-7.751-17.518-17.518-17.518h-94.263
	c-10.369,0-19.186,8.817-19.186,19.186v52.363c-9.562,2.755-24.191,9.262-30.512,14.5l5.991,4.273
	c5.388-3.813,16.349-8.733,24.521-11.374v92.893c0,9.927,9.134,18.352,18.978,18.352h95.275c1.007,0,1.894,0.821,1.818,1.826
	c-0.079,1.056-0.962,1.511-1.996,1.511h-37.955l28.988,16.684H254L226.096,121.264z M148.935,184.412
	c-2.669,0-4.671-2.001-4.671-4.67c-0.001-2.54,2.133-4.674,4.673-4.673c2.669,0.001,4.67,2.002,4.67,4.671
	C153.523,182.41,151.604,184.412,148.935,184.412z M200.737,167.561H95.505V26.584h105.107v89.258H184.22
	c-4.421,0-8.175,3.921-8.175,8.342c0,4.421,3.754,8.342,8.175,8.342h16.517V167.561z M57.541,92.814l12.971,9.192v89.852H2v-90.975
	l34.406-22.599l15.047,10.092c-6.177,4.571-11.707,10.212-14.801,16.161c-0.136-0.005-0.272-0.011-0.409-0.012
	c-6.102-0.017-11.062,4.915-11.079,11.017c-0.017,6.102,4.915,11.062,11.017,11.079c6.102,0.017,11.062-4.915,11.079-11.017
	c0.01-3.395-1.515-6.436-3.919-8.469c2.283-4.042,6.288-8.379,11.622-12.451C55.822,94.029,56.683,93.408,57.541,92.814z"/>
</svg>