<?xml version="1.0" encoding="utf-8"?>
<!-- Uploaded to: SVG Repo, www.svgrepo.com, Generator: SVG Repo Mixer Tools -->
<svg width="800px" height="800px" viewBox="0 0 1024 1024" class="icon"  version="1.1" xmlns="http://www.w3.org/2000/svg"><path d="M453.564 122.435c0-32.26 26.174-58.435 58.434-58.435s58.436 26.175 58.436 58.435V960h-116.87V122.435z" fill="#FCB814" /><path d="M813.912 375.653h-672l38.956-97.391-38.956-97.392h672l146.087 97.392z" fill="#2577FF" /><path d="M210.087 453.566h671.998l-38.955 97.39 38.955 97.393H210.087L64 550.956z" fill="#FF3B30" /><path d="M813.912 180.87H141.915l7.165 17.92h628.992l146.088 97.392-119.208 79.471h8.96L960 278.262zM882.085 453.566h-672l-26.88 17.92h663.04l-38.955 97.392 31.789 79.471h43.006l-38.955-97.391z" fill="" /></svg>