<?xml version="1.0" encoding="utf-8"?>
<!-- Uploaded to: SVG Repo, www.svgrepo.com, Generator: SVG Repo Mixer Tools -->
<svg version="1.1" id="Uploaded to svgrepo.com" xmlns="http://www.w3.org/2000/svg" xmlns:xlink="http://www.w3.org/1999/xlink" 
	 width="800px" height="800px" viewBox="0 0 64 64" xml:space="preserve">
<style type="text/css">
	.fandom_een{fill:#FF786E;}
	.fandom_twee{fill:#BE5652;}
	.fandom_drie{fill:#BE9148;}
	.fandom_vier{fill:#FFC865;}
	.fandom_vijf{fill:#018273;}
	.fandom_zes{fill:#00B3AA;}
	.fandom_zeven{fill:#508D9B;}
	.fandom_acht{fill:#6BC4D2;}
	.fandom_negen{fill:#685683;}
	.fandom_tien{fill:#8579A3;}
	.st0{fill:#EFEAE0;}
	.st1{fill:#AA9991;}
	.st2{fill:#FFFAFA;}
	.st3{fill:#644638;}
	.st4{fill:#4B322A;}
	.st5{fill:#4D4D4D;}
	.st6{fill:#3A3A3A;}
	.st7{fill:#808080;}
	.st8{fill:#CCCCCC;}
	.st9{fill:#666666;}
</style>
<g>
	<g>
		<path class="fandom_een" d="M32,7C18.193,7,7,18.193,7,32h50C57,18.193,45.807,7,32,7z"/>
		<path class="fandom_twee" d="M32,57c13.807,0,25-11.193,25-25H7C7,45.807,18.193,57,32,57z"/>
	</g>
	<g>
		<path class="fandom_vijf" d="M33,41v-3c0-0.552,0.448-1,1-1h1v5h-1C33.448,42,33,41.552,33,41z M34,35h1v-5h-1
			c-0.552,0-1,0.448-1,1v3C33,34.552,33.448,35,34,35z M35,44l-1,0c-0.552,0-1,0.448-1,1v3c0,0.552,0.448,1,1,1h1V44z M28,44l-1,0
			c-0.552,0-1,0.448-1,1v3c0,0.552,0.448,1,1,1h1V44z M14,37l-1,0c-0.552,0-1,0.448-1,1v3c0,0.552,0.448,1,1,1h1V37z"/>
		<path class="fandom_zes" d="M35,42v-5h2c0.552,0,1,0.448,1,1v3c0,0.552-0.448,1-1,1L35,42z M37,35c0.552,0,1-0.448,1-1v-3
			c0-0.552-0.448-1-1-1h-2v5L37,35z M37,44h-2v5l2,0c0.552,0,1-0.448,1-1v-3C38,44.448,37.552,44,37,44z M30,44h-2v5l2,0
			c0.552,0,1-0.448,1-1v-3C31,44.448,30.552,44,30,44z M16,37h-2v5l2,0c0.552,0,1-0.448,1-1v-3C17,37.448,16.552,37,16,37z M10,41
			v-3c0-0.552-0.448-1-1-1H7.501c0.352,1.734,0.887,3.401,1.578,4.984C9.592,41.942,10,41.524,10,41z M10,34v-3c0-0.552-0.448-1-1-1
			H7.087C7.034,30.661,7,31.326,7,32c0,1.016,0.068,2.016,0.185,3L9,35C9.552,35,10,34.552,10,34z"/>
		<path class="fandom_drie" d="M40,18v-3c0-0.552,0.448-1,1-1h1v5h-1C40.448,19,40,18.552,40,18z M48,19h1v-5h-1
			c-0.552,0-1,0.448-1,1v3C47,18.552,47.448,19,48,19z M48,26h1v-5h-1c-0.552,0-1,0.448-1,1v3C47,25.552,47.448,26,48,26z M55,26h1
			v-5h-1c-0.552,0-1,0.448-1,1v3C54,25.552,54.448,26,55,26z M20,44c-0.552,0-1,0.448-1,1v3c0,0.552,0.448,1,1,1h1v-5H20z M14,49v-5
			h-1c-0.552,0-1,0.448-1,1v2c0.523,0.697,1.085,1.362,1.676,2H14z"/>
		<path class="fandom_vier" d="M45,15v3c0,0.552-0.448,1-1,1h-2v-5h2C44.552,14,45,14.448,45,15z M51,14h-2v5h2c0.552,0,1-0.448,1-1
			v-3C52,14.448,51.552,14,51,14z M51,21h-2v5h2c0.552,0,1-0.448,1-1v-3C52,21.448,51.552,21,51,21z M58,21h-2v5h2
			c0.552,0,1-0.448,1-1v-3C59,21.448,58.552,21,58,21z M23,44h-2v5l2,0c0.552,0,1-0.448,1-1v-3C24,44.448,23.552,44,23,44z M16,49
			c0.552,0,1-0.448,1-1v-3c0-0.552-0.448-1-1-1h-2v5L16,49z M16,51h-0.239c0.403,0.345,0.814,0.681,1.239,1
			C17,51.448,16.552,51,16,51z"/>
		<path class="fandom_tien" d="M24,55c0,0.233-0.092,0.438-0.226,0.608c-0.952-0.332-1.878-0.716-2.774-1.156V51h2
			c0.552,0,1,0.448,1,1V55z M30,51h-2v5l2,0c0.552,0,1-0.448,1-1v-3C31,51.448,30.552,51,30,51z M37,51h-2v5l2,0
			c0.552,0,1-0.448,1-1v-3C38,51.448,37.552,51,37,51z M51,37h-2v5l2,0c0.552,0,1-0.448,1-1v-3C52,37.448,51.552,37,51,37z M44,37
			h-2v5l2,0c0.552,0,1-0.448,1-1v-3C45,37.448,44.552,37,44,37z"/>
		<path class="fandom_negen" d="M21,54.452c-0.684-0.336-1.353-0.7-2-1.095V52c0-0.552,0.448-1,1-1h1V54.452z M27,51
			c-0.552,0-1,0.448-1,1v3c0,0.552,0.448,1,1,1h1v-5H27z M34,51c-0.552,0-1,0.448-1,1v3c0,0.552,0.448,1,1,1h1v-5H34z M48,37
			c-0.552,0-1,0.448-1,1v3c0,0.552,0.448,1,1,1h1v-5H48z M41,37c-0.552,0-1,0.448-1,1v3c0,0.552,0.448,1,1,1h1v-5H41z"/>
		<path class="fandom_acht" d="M17,8v3c0,0.552-0.448,1-1,1h-2V7h2C16.552,7,17,7.448,17,8z M23,7h-2v5h2c0.552,0,1-0.448,1-1V8
			C24,7.448,23.552,7,23,7z M16,14h-2v5h2c0.552,0,1-0.448,1-1v-3C17,14.448,16.552,14,16,14z M23,14h-2v5h2c0.552,0,1-0.448,1-1v-3
			C24,14.448,23.552,14,23,14z M44,51h-2v3.914c1.038-0.454,2.041-0.972,3-1.557V52C45,51.448,44.552,51,44,51z M44,44h-2v5l2,0
			c0.552,0,1-0.448,1-1v-3C45,44.448,44.552,44,44,44z M51,44h-2v5l1.324,0c0.592-0.637,1.153-1.303,1.676-2v-2
			C52,44.448,51.552,44,51,44z M56,38.998c0.191-0.656,0.362-1.321,0.499-1.998H56V38.998z"/>
		<path class="fandom_zeven" d="M12,11V8c0-0.552,0.448-1,1-1h1v5h-1C12.448,12,12,11.552,12,11z M20,12h1V7h-1
			c-0.552,0-1,0.448-1,1v3C19,11.552,19.448,12,20,12z M13,19h1v-5h-1c-0.552,0-1,0.448-1,1v3C12,18.552,12.448,19,13,19z M20,19h1
			v-5h-1c-0.552,0-1,0.448-1,1v3C19,18.552,19.448,19,20,19z M42,51l-1,0c-0.552,0-1,0.448-1,1v3c0,0.233,0.092,0.438,0.226,0.608
			c0.602-0.21,1.194-0.441,1.774-0.694V51z M47,52c0.425-0.319,0.835-0.655,1.239-1H48C47.448,51,47,51.448,47,52z M41,44
			c-0.552,0-1,0.448-1,1v3c0,0.552,0.448,1,1,1h1v-5H41z M48,44c-0.552,0-1,0.448-1,1v3c0,0.552,0.448,1,1,1h1v-5H48z M56,37h-1
			c-0.552,0-1,0.448-1,1v3c0,0.524,0.408,0.942,0.921,0.984c0.421-0.965,0.781-1.962,1.079-2.986V37z"/>
	</g>
</g>
</svg>